<svg xmlns="http://www.w3.org/2000/svg" viewBox="0 0 800 300">
  <defs>
    <linearGradient id="bg" x1="0%" y1="0%" x2="100%" y2="100%">
      <stop offset="0%" stop-color="#f59e0b"/>
      <stop offset="100%" stop-color="#ef4444"/>
    </linearGradient>
  </defs>
  <rect width="800" height="300" fill="url(#bg)"/>
  <circle cx="720" cy="-40" r="210" fill="rgba(255,255,255,0.05)"/>
  <circle cx="60" cy="340" r="180" fill="rgba(255,255,255,0.05)"/>

  <!-- Central cog/gear -->
  <g transform="translate(400, 136)">
    <circle r="80" fill="none" stroke="rgba(255,255,255,0.14)" stroke-width="2"/>
    <circle r="56" fill="rgba(255,255,255,0.08)" stroke="rgba(255,255,255,0.18)" stroke-width="1.5"/>
    <circle r="22" fill="rgba(255,255,255,0.12)" stroke="rgba(255,255,255,0.28)" stroke-width="1.5"/>
    <rect x="-8" y="-91" width="16" height="22" rx="4" fill="rgba(255,255,255,0.2)"/>
    <rect x="-8" y="69" width="16" height="22" rx="4" fill="rgba(255,255,255,0.2)"/>
    <rect x="-91" y="-8" width="22" height="16" rx="4" fill="rgba(255,255,255,0.2)"/>
    <rect x="69" y="-8" width="22" height="16" rx="4" fill="rgba(255,255,255,0.2)"/>
    <g transform="rotate(45)">
      <rect x="-8" y="-91" width="16" height="22" rx="4" fill="rgba(255,255,255,0.2)"/>
      <rect x="-8" y="69" width="16" height="22" rx="4" fill="rgba(255,255,255,0.2)"/>
      <rect x="-91" y="-8" width="22" height="16" rx="4" fill="rgba(255,255,255,0.2)"/>
      <rect x="69" y="-8" width="22" height="16" rx="4" fill="rgba(255,255,255,0.2)"/>
    </g>
  </g>

  <!-- Left module card: CRM -->
  <rect x="52" y="58" width="150" height="122" rx="10" fill="rgba(255,255,255,0.1)" stroke="rgba(255,255,255,0.22)" stroke-width="1"/>
  <rect x="52" y="58" width="150" height="32" rx="10" fill="rgba(255,255,255,0.18)"/>
  <rect x="52" y="75" width="150" height="15" fill="rgba(255,255,255,0.18)"/>
  <text x="127" y="80" text-anchor="middle" fill="white" font-family="Arial, sans-serif" font-size="13" font-weight="700" opacity="0.95">CRM</text>
  <rect x="68" y="104" width="74" height="5" rx="2.5" fill="rgba(255,255,255,0.32)"/>
  <rect x="68" y="117" width="100" height="5" rx="2.5" fill="rgba(255,255,255,0.22)"/>
  <rect x="68" y="130" width="60" height="5" rx="2.5" fill="rgba(255,255,255,0.18)"/>
  <rect x="68" y="143" width="84" height="5" rx="2.5" fill="rgba(255,255,255,0.18)"/>
  <rect x="68" y="156" width="68" height="5" rx="2.5" fill="rgba(255,255,255,0.14)"/>

  <!-- Right module card: Accounting -->
  <rect x="598" y="58" width="150" height="122" rx="10" fill="rgba(255,255,255,0.1)" stroke="rgba(255,255,255,0.22)" stroke-width="1"/>
  <rect x="598" y="58" width="150" height="32" rx="10" fill="rgba(255,255,255,0.18)"/>
  <rect x="598" y="75" width="150" height="15" fill="rgba(255,255,255,0.18)"/>
  <text x="673" y="80" text-anchor="middle" fill="white" font-family="Arial, sans-serif" font-size="12" font-weight="700" opacity="0.95">Accounting</text>
  <rect x="614" y="104" width="74" height="5" rx="2.5" fill="rgba(255,255,255,0.32)"/>
  <rect x="614" y="117" width="100" height="5" rx="2.5" fill="rgba(255,255,255,0.22)"/>
  <rect x="614" y="130" width="60" height="5" rx="2.5" fill="rgba(255,255,255,0.18)"/>
  <rect x="614" y="143" width="84" height="5" rx="2.5" fill="rgba(255,255,255,0.18)"/>
  <rect x="614" y="156" width="68" height="5" rx="2.5" fill="rgba(255,255,255,0.14)"/>

  <!-- Dashed connector lines -->
  <line x1="202" y1="119" x2="318" y2="119" stroke="rgba(255,255,255,0.3)" stroke-width="1.5" stroke-dasharray="6,5"/>
  <line x1="482" y1="119" x2="598" y2="119" stroke="rgba(255,255,255,0.3)" stroke-width="1.5" stroke-dasharray="6,5"/>
  <circle cx="318" cy="119" r="4" fill="rgba(255,255,255,0.35)"/>
  <circle cx="482" cy="119" r="4" fill="rgba(255,255,255,0.35)"/>

  <!-- Code snippet bar -->
  <rect x="52" y="208" width="696" height="68" rx="8" fill="rgba(0,0,0,0.22)"/>
  <text x="72" y="233" fill="#fcd34d" font-family="Courier New, monospace" font-size="13" opacity="0.95">class</text>
  <text x="108" y="233" fill="white" font-family="Courier New, monospace" font-size="13" opacity="0.85"> OdooModule(models.Model):</text>
  <text x="72" y="257" fill="rgba(255,255,255,0.5)" font-family="Courier New, monospace" font-size="13">    _inherit = </text>
  <text x="192" y="257" fill="#86efac" font-family="Courier New, monospace" font-size="13" opacity="0.9">'sale.order'</text>

  <!-- Odoo official logo (white, top center) -->
  <svg x="298" y="10" width="205" height="55" viewBox="100 175 690 185" xmlns="http://www.w3.org/2000/svg">
    <g fill="none">
      <path fill="white" d="M695 346c-41.421 0-75-33.579-75-75s33.579-75 75-75 75 33.579 75 75-33.579 75-75 75zm0-31c24.3 0 44-19.7 44-44s-19.7-44-44-44-44 19.7-44 44 19.7 44 44 44zm-157 31c-41.421 0-75-33.579-75-75s33.579-75 75-75 75 33.579 75 75-33.579 75-75 75zm0-31c24.3 0 44-19.7 44-44s-19.7-44-44-44-44 19.7-44 44 19.7 44 44 44zm-82-45c0 41.935-33.592 76-75.009 76C339.575 346 306 312.005 306 270.07c0-41.936 30.5-74.07 74.991-74.07 16.442 0 31.647 3.496 44.007 12.58l.002-43.49c0-8.334 7.27-15.09 15.5-15.09 8.228 0 15.5 6.762 15.5 15.09V270zm-75 45c24.3 0 44-19.7 44-44s-19.7-44-44-44-44 19.7-44 44 19.7 44 44 44z"/>
      <path fill="white" opacity="0.9" d="M224 346c-41.421 0-75-33.579-75-75s33.579-75 75-75 75 33.579 75 75-33.579 75-75 75zm0-31c24.3 0 44-19.7 44-44s-19.7-44-44-44-44 19.7-44 44 19.7 44 44 44z"/>
    </g>
  </svg>
</svg>
